<?xml version="1.0" encoding="UTF-8"?><svg id="_Layer_" xmlns="http://www.w3.org/2000/svg" viewBox="0 0 681.849 681.846"><defs><style>.cls-1{fill:#C0922A;}</style></defs><path class="cls-1" d="M590.725,340.923c0-137.96-111.839-249.8-249.8-249.8s-249.8,111.839-249.8,249.8,111.839,249.8,249.8,249.8,249.8-111.839,249.8-249.8ZM403.897,231.11c.88.482,1.76.985,2.619,1.53.23.126.46.272.712.419.691.419,1.404.858,2.095,1.32.838.503,1.697,1.068,2.535,1.634.629.419,1.257.838,1.886,1.278,1.823,1.257,3.624,2.577,5.384,3.959.649.482,1.299,1.006,1.948,1.508.796.629,1.571,1.278,2.325,1.928.859.712,1.697,1.445,2.514,2.178.733.649,1.466,1.299,2.179,1.99.482.419.943.859,1.403,1.319.754.712,1.488,1.446,2.22,2.179,5.007,5.028,9.594,10.454,13.701,16.235.628.88,1.236,1.76,1.843,2.661.482.712.964,1.424,1.404,2.157.503.754.984,1.508,1.466,2.283.545.88,1.089,1.78,1.613,2.681.042.084.084.147.126.231.44.754.88,1.508,1.278,2.263.44.775.859,1.55,1.257,2.326.042.063.084.125.126.209.503.964.984,1.927,1.466,2.89.063.126.126.252.189.377.377.754.733,1.508,1.09,2.262.44.943.859,1.907,1.277,2.87.398.901.775,1.801,1.152,2.723.147.335.294.691.419,1.047.356.88.691,1.759,1.027,2.661.524,1.362,1.005,2.744,1.467,4.127.356,1.089.712,2.179,1.026,3.268.419,1.32.796,2.64,1.152,3.98,3.079,11.48,4.546,23.106,4.399,34.775,0,.482,0,.964-.021,1.446-.021,1.005-.062,1.99-.105,2.975-.02.503-.042,1.026-.083,1.529-.042.691-.084,1.382-.146,2.074-.042.775-.105,1.571-.189,2.346h-.021c-.21,2.409-.524,4.839-.88,7.249-1.11,7.29-2.828,14.412-5.112,21.304-.963,2.933-2.053,5.824-3.226,8.673-4.274,10.307-9.888,20.006-16.696,28.867-.922-.251-1.844-.482-2.765-.733-6.369-1.697-12.758-3.834-19.022-6.369-.105-.042-.23-.084-.335-.147-1.132-.44-2.263-.921-3.373-1.403,9.993-10.956,17.471-23.924,21.954-38.043.168-.482.315-.964.461-1.445.712-2.367,1.341-4.755,1.906-7.185.524-2.388.985-4.839,1.362-7.29,1.068-7.102,1.404-14.224.964-21.305-.189-3.456-.566-6.934-1.152-10.37-.544-3.498-1.299-6.975-2.22-10.432-5.656-21.137-17.953-39.761-34.608-53.314.105-10.244-.566-20.509-2.011-30.669-.063-.377-.105-.755-.168-1.131.063.021.126.063.189.104ZM435.027,331.894c1.005,8.338.859,16.717-.419,25.076l-.083.545c-.147.984-.314,1.948-.503,2.912-13.638-8.715-28.49-15.482-44.013-20.028-2.702-.838-5.425-1.55-8.149-2.22-3.331-.796-6.662-1.508-10.034-2.116-5.174-.942-10.369-1.634-15.586-2.116-2.996-.251-6.013-.44-9.008-.545-2.095-.083-4.19-.125-6.285-.125s-4.189.042-6.306.125c-2.661-5.447-5.027-11.04-7.101-16.801-.922-2.577-1.802-5.195-2.577-7.814,5.321-.44,10.642-.649,15.984-.649s10.643.21,15.963.649c2.828.231,5.657.503,8.463.88,3.645.44,7.29.985,10.915,1.655,4.672.838,9.322,1.865,13.91,3.038,2.702.691,5.404,1.445,8.065,2.262,12.737,3.833,25.055,8.945,36.765,15.272ZM314.299,301.498c.65,2.744,1.383,5.468,2.2,8.17.942,3.289,2.011,6.536,3.163,9.762,1.781,4.944,3.75,9.783,5.97,14.517,1.258,2.744,2.598,5.447,4.022,8.108,1.949,3.708,4.043,7.353,6.285,10.914-3.373,5.028-7.039,9.867-10.977,14.539-1.781,2.095-3.603,4.148-5.488,6.138-6.075-8.778-11.396-18.016-15.984-27.673-1.215-2.556-2.388-5.175-3.499-7.793-1.425-3.373-2.765-6.787-4.001-10.243-1.613-4.483-3.058-9.008-4.316-13.596-.754-2.682-1.445-5.384-2.074-8.108-3.059-12.946-4.776-26.165-5.153-39.425v-.021c.378-.293.775-.565,1.153-.838,1.236-.901,2.493-1.78,3.791-2.618,1.278-.838,2.577-1.655,3.918-2.43,2.074-1.215,4.189-2.346,6.368-3.394,2.179-1.047,4.399-2.032,6.683-2.912l2.116-.817,1.215-1.55c0,.398-.021.775-.042,1.173-.712,16.131.859,32.366,4.651,48.098ZM318.468,386.508c2.053-1.907,4.043-3.896,6.012-5.95,2.346-2.472,4.65-5.027,6.871-7.646,3.394-4.001,6.578-8.149,9.574-12.422,1.739-2.472,3.415-4.965,4.986-7.521,2.241-3.561,4.336-7.185,6.306-10.914,6.054.398,12.129,1.152,18.121,2.241,2.702.482,5.384,1.027,8.044,1.676-4.567,9.657-9.909,18.875-15.984,27.652-1.613,2.346-3.268,4.671-5.007,6.934-2.199,2.933-4.483,5.782-6.85,8.589-3.059,3.624-6.243,7.122-9.595,10.516-1.927,2.011-3.938,3.98-5.991,5.866-9.679,9.113-20.237,17.199-31.507,24.175-7.73-3.289-14.999-7.626-21.598-12.905l-.44-.335c-.775-.628-1.53-1.236-2.263-1.886,14.328-7.436,27.589-16.884,39.321-28.071ZM291.109,209.7c7.688-28.637,21.221-54.509,40.242-76.882l19.148-.021c19.021,22.374,32.575,48.245,40.242,76.882.356,1.383.712,2.744,1.047,4.127.209.817.398,1.634.587,2.429.775,3.331,1.466,6.683,2.074,10.014.419,2.367.796,4.713,1.131,7.08,1.089,7.71,1.739,15.503,1.906,23.296.084,3.393.063,6.787-.063,10.202-.377,13.261-2.116,26.479-5.132,39.404-4.798-1.236-9.637-2.283-14.518-3.163-3.373-.608-6.788-1.131-10.202-1.571,3.205-13.281,4.818-26.898,4.818-40.536,0-2.535-.063-5.048-.168-7.583-.021-.377-.042-.754-.042-1.152-.146-2.64-.334-5.259-.607-7.898-.23-2.493-.524-4.985-.88-7.458v-.021c-.943-6.557-2.262-13.177-4.001-19.713v-.021c-.063-.314-.147-.607-.231-.921-.733-2.724-1.508-5.426-2.388-8.086-5.342-16.801-13.093-32.428-23.149-46.653-10.056,14.266-17.806,29.915-23.148,46.716-4.085.691-8.17,1.571-12.213,2.66-4.965,1.341-9.825,2.933-14.455,4.755-.545.209-1.089.419-1.613.649.503-2.199,1.047-4.357,1.613-6.536ZM212.803,338.64c.042-1.466.126-2.912.209-4.378.063-.922.147-1.865.23-2.787.105-1.131.23-2.283.356-3.414.105-.859.21-1.697.335-2.556.251-1.696.523-3.393.817-5.09.147-.838.314-1.697.482-2.535.314-1.487.629-2.974.985-4.462.272-1.11.545-2.22.838-3.31.461-1.655.922-3.289,1.424-4.923.503-1.614,1.048-3.247,1.613-4.839.629-1.78,1.299-3.561,2.012-5.3.712-1.759,1.466-3.498,2.241-5.216.796-1.718,1.613-3.415,2.472-5.112.858-1.676,1.76-3.352,2.681-4.985l1.131-1.948c1.152-1.969,2.367-3.875,3.603-5.782,2.095-3.142,4.315-6.201,6.661-9.176.482-.586.964-1.173,1.445-1.759.482-.587.964-1.152,1.446-1.739.502-.565.984-1.152,1.487-1.717,1.488-1.655,2.996-3.289,4.546-4.881.629-.628,1.236-1.236,1.865-1.864,2.136-2.074,4.336-4.085,6.598-6.012.566-.482,1.152-.985,1.76-1.466.586-.482,1.173-.964,1.78-1.425,1.802-1.425,3.624-2.807,5.51-4.126.628-.44,1.257-.88,1.906-1.32,1.257-.858,2.555-1.696,3.855-2.514.649-.419,1.319-.817,1.969-1.215.67-.398,1.32-.796,1.99-1.173.377-.231.754-.44,1.11-.649.314-.168.607-.335.921-.503,2.032-1.131,4.106-2.2,6.222-3.205.335-.189.692-.356,1.047-.503.356-.188.712-.356,1.068-.524,2.221-1.005,4.463-1.948,6.746-2.849,4.337-1.696,8.924-3.205,13.554-4.441,1.383-.377,2.765-.712,4.148-1.047,1.09-.252,2.2-.482,3.289-.712.209-.042.419-.084.629-.105.209-.042.419-.084.629-.126,1.257-.251,2.513-.503,3.771-.712,1.362-.23,2.724-.44,4.085-.607.293-.042.566-.063.838-.084.273-.021.545-.042.838-.083,1.341-.168,2.682-.314,4.023-.44.775-.063,1.55-.126,2.325-.188,1.781-.126,3.562-.21,5.342-.252.733-.021,1.446-.042,2.179-.042.418,0,.838-.021,1.257-.021.733,0,1.466.042,2.199.042,1.132.021,2.242.042,3.373.084,2.095.105,4.19.23,6.285.418,1.005.105,1.99.21,2.975.314.587.063,1.152.126,1.717.209v.021c.252.922.503,1.822.755,2.744,1.739,6.515,3.101,13.156,4.022,19.692.189,1.32.356,2.66.503,3.98-7.206-1.571-14.517-2.367-21.85-2.367s-14.769.796-22.101,2.409c-.482.104-.985.209-1.466.335-1.09.251-2.158.524-3.247.817-1.32.356-2.64.733-3.939,1.152-2.388.733-4.713,1.529-6.976,2.43h-.021c-6.725,2.619-13.051,5.928-18.917,9.825-2.787,1.822-5.468,3.791-8.045,5.865-.126.105-.23.209-.356.314-19.545,15.963-32.722,38.797-36.765,63.705-8.924,5.048-17.471,10.746-25.536,17.073-.314.251-.629.503-.943.754-.021,0-.021.021-.021.021-.021-1.906,0-3.812.084-5.719ZM254.637,451.345c-1.341.398-2.702.796-4.064,1.153-3.185.859-6.347,1.634-9.553,2.325-1.948.42-3.897.818-5.866,1.173-11.878,2.2-23.861,3.31-35.864,3.31-11.815,0-23.63-1.069-35.446-3.227l-9.573-16.591c9.909-27.694,25.557-52.351,46.485-73.279,1.592-1.613,3.226-3.184,4.881-4.713,1.655-1.571,3.352-3.101,5.07-4.588.775-.67,1.53-1.341,2.304-1.991.084-.062.168-.146.252-.209,1.843-1.55,3.708-3.058,5.593-4.525,6.117-4.797,12.528-9.238,19.19-13.261,2.891-1.78,5.823-3.456,8.819-5.028v-.042l.021.021c11.668-6.306,23.987-11.438,36.723-15.272,1.32,4.776,2.828,9.49,4.504,14.161,1.173,3.247,2.409,6.453,3.729,9.616-15.503,4.566-30.355,11.333-43.972,20.027-.315.188-.65.398-.964.607-2.22,1.425-4.399,2.912-6.536,4.483-2.053,1.425-4.064,2.933-6.034,4.483-.083.063-.188.147-.272.231-1.278.985-2.535,2.011-3.791,3.058h-.021c-1.34,1.131-2.681,2.263-3.98,3.436-1.299,1.152-2.597,2.325-3.876,3.519l-.125.126c-1.027.963-2.032,1.927-3.017,2.911-.251.231-.503.482-.733.712-1.991,1.99-3.918,4.022-5.782,6.075-11.878,13.051-21.535,27.589-28.867,43.427,5.133.461,10.265.691,15.397.691,12.255,0,24.489-1.32,36.618-3.98,5.866,7.059,12.507,13.554,19.839,19.378.44.356.901.712,1.341,1.047-.796.272-1.613.503-2.43.733ZM404.631,454.11c-.943.545-1.906,1.09-2.87,1.592-.838.461-1.697.901-2.556,1.34-3.058,1.551-6.18,2.996-9.343,4.295-1.027.419-2.032.817-3.079,1.215-.754.293-1.509.565-2.263.838-.587.21-1.173.419-1.76.629-.733.252-1.487.503-2.22.733-.796.272-1.571.524-2.367.754-1.341.398-2.681.796-4.043,1.152-10.873,2.912-21.976,4.336-33.015,4.336-.901,0-1.802,0-2.703-.021-1.425-.042-2.87-.084-4.294-.168-.482-.021-.964-.063-1.445-.084-.775-.063-1.55-.105-2.346-.189-.901-.063-1.78-.146-2.681-.252-.88-.084-1.781-.188-2.661-.314-.901-.104-1.78-.23-2.681-.356-.88-.126-1.76-.272-2.64-.419-.88-.147-1.739-.293-2.618-.482-3.54-.649-7.039-1.488-10.516-2.451-.859-.231-1.718-.482-2.577-.754-4.315-1.278-8.547-2.807-12.695-4.546-.817-.335-1.655-.691-2.472-1.068-.817-.356-1.634-.733-2.451-1.131-1.571-.712-3.121-1.488-4.672-2.284-1.026-.524-2.032-1.089-3.058-1.655-.629-.335-1.257-.691-1.886-1.068-.398-.23-.817-.461-1.215-.691-1.11-.67-2.2-1.341-3.289-2.032-1.843-1.152-3.645-2.367-5.425-3.624-.294.105-.608.21-.922.314.315-.105.608-.23.901-.335-1.969-1.404-3.917-2.87-5.824-4.378-5.782-4.609-11.103-9.637-15.921-15.062-2.074-2.305-4.022-4.672-5.907-7.102-6.767-8.819-12.36-18.497-16.634-28.888.608-.692,1.299-1.383,1.969-2.053,1.194-1.194,2.409-2.368,3.624-3.52,1.236-1.152,2.472-2.304,3.729-3.414,1.257-1.09,2.514-2.179,3.791-3.247h.021c1.215-1.005,2.43-1.99,3.645-2.954.084-.042.146-.105.231-.168.063-.042.105-.084.167-.126,1.006-.795,2.032-1.571,3.058-2.325,4.546,14.266,11.983,27.15,21.933,38.043.356.377.691.754,1.068,1.11,1.676,1.823,3.456,3.582,5.3,5.237,1.801,1.676,3.666,3.289,5.593,4.818,5.614,4.483,11.647,8.317,17.974,11.501h.021c3.121,1.571,6.306,2.975,9.553,4.189,2.305.901,4.671,1.697,7.039,2.409,1.362.419,2.744.796,4.148,1.153,8.379,2.158,17.031,3.247,25.725,3.247,8.882,0,17.807-1.152,26.542-3.498,3.457-.922,6.851-2.032,10.161-3.289,8.819,5.195,18.016,9.741,27.526,13.554.377.146.733.293,1.111.44-.587.356-1.194.712-1.781,1.047ZM431.298,452.476c-2.158-.566-4.315-1.194-6.473-1.865h-.021c-.712-.188-1.425-.419-2.137-.649-1.173-.378-2.346-.754-3.519-1.152-1.341-.44-2.681-.922-4.023-1.404-2.241-.817-4.483-1.655-6.704-2.556-7.227-2.891-14.287-6.242-21.116-9.972-2.975-1.634-5.908-3.351-8.799-5.132-11.292-6.975-21.891-15.084-31.591-24.217,3.499-3.52,6.829-7.185,10.014-10.956,2.241-2.64,4.399-5.321,6.473-8.065,11.731,11.166,24.992,20.634,39.321,28.071.335.189.691.377,1.047.545,2.346,1.215,4.714,2.346,7.123,3.414,2.283,1.069,4.566,2.054,6.892,2.975l.021.021c1.655.649,3.31,1.298,4.965,1.906,1.655.607,3.31,1.194,4.985,1.739,3.017,1.027,6.054,1.927,9.092,2.765.314.084.629.168.943.251,2.723.733,5.447,1.404,8.17,1.991,4.713,1.026,9.427,1.865,14.161,2.493,1.865.251,3.729.46,5.593.649,5.614.566,11.228.838,16.863.838,5.133,0,10.265-.231,15.397-.691-7.332-15.837-16.99-30.355-28.826-43.406,3.184-8.61,5.489-17.576,6.892-26.814.084-.566.168-1.131.23-1.696.608.565,1.215,1.131,1.823,1.717,1.006.964,2.011,1.948,2.996,2.933,20.928,20.928,36.577,45.585,46.485,73.279l-9.573,16.591c-11.794,2.158-23.63,3.227-35.425,3.227-17.199,0-34.356-2.263-51.282-6.83Z"/><path class="cls-1" d="M608.177,402.978l6.424,1.485c2.47,4.526,4.91,9.194,7.312,14.004l3.39.933c4.406-2.985,8.852-6.112,13.326-9.381l6.423,1.485,1.154-4.525-37-7.97-1.03,3.969ZM632.802,408.672l-7.992,5.591-4.38-8.451,12.372,2.86Z"/><path class="cls-1" d="M366.801,614.218l3.528,37.684c1.556-.046,3.105-.172,4.639-.455l-4.087-37.628c-1.346.263-2.708.37-4.08.399Z"/><path class="cls-1" d="M561.648,522.537c-.339-4.838-.751-9.585-1.231-14.236l-4.36-.036c.561,5.486,1.182,11.234,1.109,16.622l2.677,2.28c5.822-.56,11.162-1.73,16.756-2.902l-1.077-4.429c-4.697.992-9.323,1.891-13.874,2.701Z"/><path class="cls-1" d="M588.385,509.416c-5.716,1.388-11.342,2.64-16.868,3.762l1.14,4.347c4.671-.957,9.412-2.006,14.219-3.152.367,4.8.665,9.696.889,14.682l4.601-.28c-.258-5.922-.62-11.717-1.077-17.377l-2.905-1.981Z"/><path class="cls-1" d="M477.945,584.121l-2.824,1.723c-.516,5.276-1.369,10.217-2.226,15.442l1.266,2.494c4.759,2.389,9.761,4.936,14.664,7.013l3.118-1.887c.72-5.434,1.318-10.803,1.798-16.101l-1.452-2.389c-4.9-2.029-9.683-4.128-14.344-6.294ZM487.874,605.342c-3.397-1.386-6.845-3.009-10.286-4.764.619-3.595,1.122-7.256,1.456-11.089,3.314,1.52,6.688,3.007,10.122,4.46l-1.291,11.394Z"/><path class="cls-1" d="M429.524,615.558c1.615-5.068,3.1-10.094,4.458-15.07l-3.97-1.553c-1.123,4.074-2.333,8.179-3.629,12.313-3.365-2.415-6.775-5.283-10.025-7.94l-2.365,3.521c3.532,2.95,7.17,5.873,10.91,8.766-1.558,4.25-3.219,8.532-4.983,12.842l.748,2.726c4.242,3.25,8.614,6.462,13.116,9.63.904-1.24,1.754-2.614,2.618-3.91-3.897-2.43-7.838-5.37-11.644-8.234,1.719-4.307,3.368-8.478,4.766-13.091Z"/><path class="cls-1" d="M646.211,340.009l6.093-.022.005-4.665-24.23.443c-4.065-2.868-8.126-5.613-12.179-8.235l-2.81,3.375,7.469,4.998-6.092.111-.012,4.106,24.235-.085c4.067,3.036,8.132,6.195,12.192,9.477l2.807-3.64-7.477-5.863Z"/><path class="cls-1" d="M535.921,553.604l-.629-1.69-8.551-9.276-3.038,2.761,7.749,8.661-.758,11.929-12.863-15.238c-1.04.887-1.954,1.926-3.096,2.69l23.983,29.281c1.287-.882,2.345-2.041,3.528-3.049l-7.497-8.881c.515-5.836.903-11.568,1.171-17.187Z"/><path class="cls-1" d="M48.096,413.247c-3.784-2.809-7.592-5.722-11.416-8.742l-2.776,3.58,8.479,6.568-4.663,1.149,1.163,4.525,4.645-1.218-4.271,9.81,4.163,1.816c1.9-4.476,3.835-8.85,5.799-13.119l26.274-6.892-1.022-3.973-26.375,6.494Z"/><path class="cls-1" d="M149.102,581.406c-.829-3.353-1.633-6.645-2.14-10.205l-2.087-1.894-10.384-.527,22.205-24.5-3.04-2.76-25.832,27.663,1.604,3.876c4.545.332,9.021.597,13.425.797.685,4.574,1.695,8.905,2.85,13.213l4.15.877,23.173-29.926-3.292-2.453-20.632,25.839Z"/><path class="cls-1" d="M71.775,458.215l-17.345,7.57.013,4.161c4.112,2.076,8.189,4.062,12.226,5.961-1.006,4.385-1.968,8.856-2.88,13.41,1.462.327,2.951.628,4.526.869.832-5.046,2.091-10.183,3.207-15.1l-1.223-2.539-9.493-4.527,12.873-5.85-1.903-3.953Z"/><path class="cls-1" d="M100.291,469.731c-3.818-1.478-7.684-3.039-11.595-4.685,1.13-4.132,2.301-8.177,3.508-12.132l-4.386-.858c-1.364,4.511-2.681,9.137-3.945,13.876l1.161,2.412,9.129,3.791-12.479,6.651c.603,1.334,1.276,2.632,2.08,3.857l16.565-9.149c-.072-1.231-.126-2.462-.038-3.762Z"/><path class="cls-1" d="M259.97,606.41c-1.254-1.825-2.367-4.001-3.495-6.034l-3.535,2.502c1.416,2.557,2.852,5.202,4.371,7.731l2.564.654,3.845-1.888-7.795,27.169-2.557-3.534-2.768-.716c-2.831,1.105-5.665,2.065-8.564,3.081l1.633,4.393c2.33-.822,4.591-1.521,6.937-2.59l4.352,5.909,4.168-.767,9.89-36.534-2.746-2.545-6.299,3.17Z"/><path class="cls-1" d="M207.401,580.92l-9.477,17.003-1.043-4.165-4.252,1.261,2.177,8.496-5.833,10.465c1.351.771,2.618,1.694,4.052,2.313l3.56-6.617,1.371,4.016,4.388-1.527-2.726-8.126,11.338-21.076c-1.267-.529-2.37-1.362-3.557-2.041Z"/><path class="cls-1" d="M320.53,612.907c-4.294,3.989-8.787,8.132-13.382,11.494l-.391,3.322c3.176,4.322,6.544,8.144,10.052,11.927-4.088,3.49-8.306,6.919-12.612,9.811l2.786,3.798c4.995-3.592,9.864-7.798,14.521-11.695l.213-3.337c-3.54-3.832-6.943-7.656-10.21-11.465,4.005-3.45,7.872-6.912,11.603-10.379l-2.578-3.475Z"/><path class="cls-1" d="M52.874,351.796l3.513,2.598c3.752-4.326,7.509-8.49,11.26-12.49l-1.762-3.366-32.935-.295,8.104-9.372-3.512-3.047c-3.752,4.236-7.51,8.636-11.262,13.199l1.76,3.842,32.937-.191-8.103,9.123Z"/><path class="cls-1" d="M128.797,512.198c-4.858-1.191-9.807-2.486-14.844-3.891l-3.005,2.221c-.06,4.865-.049,9.827.036,14.883l-13.83,11.113c.952,1.231,1.832,2.521,2.844,3.701l29.317-24.281c-.241-1.202-.346-2.506-.519-3.746ZM115.373,521.884l.006-8.549,7.982,2.13-7.989,6.418Z"/><path class="cls-1" d="M608.147,456.554l-3.926,8.149-15.047-7.084-1.78,3.695,14.939,7.309-3.924,8.15,2.291,3.322c7.202-.427,14.519-1.069,21.938-1.933l1.725-3.582c-3.956-6.325-8.023-12.431-12.184-18.313l-4.03.288ZM604.193,475.325l2.258-4.685,7.756,3.795-10.014.89ZM608.369,466.657l2.257-4.686,5.555,8.364-7.812-3.678Z"/><path class="cls-1" d="M73.593,278.867l-6.423-1.485c-2.47-4.525-4.911-9.193-7.313-14.003l-3.39-.934c-4.407,2.985-8.851,6.112-13.326,9.382l-6.423-1.485-1.155,4.525,37.001,7.97,1.03-3.97ZM48.969,273.174l7.992-5.591,4.381,8.451-12.373-2.86Z"/><path class="cls-1" d="M314.97,67.628l-3.528-37.684c-1.556.046-3.105.172-4.639.456l4.087,37.628c1.345-.263,2.708-.371,4.079-.399Z"/><path class="cls-1" d="M120.123,159.308c.339,4.838.751,9.584,1.231,14.236l4.36.036c-.562-5.486-1.182-11.234-1.11-16.622l-2.677-2.279c-5.822.561-11.161,1.73-16.756,2.902l1.077,4.429c4.697-.992,9.324-1.891,13.875-2.701Z"/><path class="cls-1" d="M93.386,172.43c5.716-1.388,11.341-2.641,16.867-3.762l-1.14-4.347c-4.67.957-9.411,2.007-14.219,3.153-.367-4.801-.665-9.696-.889-14.682l-4.601.28c.258,5.922.62,11.717,1.077,17.378l2.905,1.981Z"/><path class="cls-1" d="M203.826,97.724l2.824-1.723c.516-5.275,1.369-10.217,2.225-15.442l-1.267-2.493c-4.758-2.39-9.76-4.936-14.662-7.013l-3.119,1.887c-.719,5.435-1.318,10.804-1.798,16.101l1.453,2.389c4.901,2.029,9.683,4.128,14.344,6.294ZM193.898,76.503c3.397,1.385,6.845,3.009,10.286,4.764-.619,3.594-1.123,7.256-1.456,11.088-3.314-1.52-6.688-3.007-10.122-4.46l1.291-11.393Z"/><path class="cls-1" d="M252.247,66.287c-1.615,5.068-3.101,10.093-4.458,15.07l3.969,1.553c1.124-4.074,2.334-8.179,3.629-12.313,3.365,2.415,6.776,5.283,10.025,7.94l2.365-3.52c-3.533-2.95-7.17-5.874-10.91-8.767,1.558-4.25,3.218-8.532,4.983-12.842l-.748-2.726c-4.241-3.25-8.615-6.462-13.115-9.631-.904,1.241-1.755,2.614-2.618,3.91,3.896,2.429,7.838,5.37,11.643,8.234-1.718,4.308-3.367,8.478-4.766,13.091Z"/><path class="cls-1" d="M145.85,128.241l.628,1.69,8.552,9.276,3.038-2.76-7.751-8.662.758-11.928,12.863,15.238c1.04-.887,1.954-1.927,3.097-2.69l-23.983-29.281c-1.288.883-2.346,2.042-3.529,3.049l7.497,8.881c-.515,5.836-.904,11.568-1.171,17.187Z"/><path class="cls-1" d="M633.675,268.599c3.783,2.809,7.591,5.722,11.417,8.742l2.775-3.58-8.48-6.568,4.664-1.148-1.162-4.526-4.646,1.218,4.272-9.811-4.164-1.816c-1.901,4.476-3.836,8.85-5.8,13.12l-26.274,6.891,1.023,3.973,26.375-6.494Z"/><path class="cls-1" d="M532.668,100.44c.83,3.352,1.634,6.645,2.14,10.205l2.087,1.893,10.384.528-22.205,24.5,3.04,2.76,25.831-27.663-1.604-3.876c-4.544-.332-9.02-.596-13.426-.797-.685-4.574-1.695-8.905-2.85-13.212l-4.149-.878-23.173,29.926,3.292,2.453,20.631-25.839Z"/><path class="cls-1" d="M609.996,223.63l17.344-7.57-.012-4.16c-4.113-2.076-8.19-4.063-12.226-5.961,1.006-4.385,1.968-8.856,2.88-13.41-1.463-.328-2.951-.628-4.526-.869-.832,5.046-2.091,10.183-3.209,15.101l1.225,2.539,9.493,4.527-12.874,5.85,1.904,3.953Z"/><path class="cls-1" d="M581.48,212.115c3.818,1.477,7.684,3.038,11.596,4.685-1.13,4.133-2.301,8.177-3.509,12.132l4.386.858c1.364-4.51,2.681-9.137,3.945-13.876l-1.162-2.412-9.129-3.791,12.479-6.651c-.603-1.335-1.276-2.632-2.079-3.858l-16.566,9.15c.072,1.23.126,2.462.038,3.762Z"/><path class="cls-1" d="M421.801,75.436c1.254,1.825,2.368,4.001,3.495,6.034l3.536-2.501c-1.416-2.557-2.852-5.202-4.372-7.732l-2.563-.654-3.845,1.888,7.795-27.169,2.557,3.535,2.768.716c2.832-1.105,5.665-2.065,8.564-3.081l-1.634-4.393c-2.33.821-4.591,1.521-6.936,2.59l-4.352-5.909-4.169.767-9.889,36.534,2.746,2.545,6.299-3.17Z"/><path class="cls-1" d="M474.37,100.925l9.478-17.002,1.043,4.164,4.251-1.26-2.177-8.497,5.833-10.465c-1.351-.77-2.619-1.694-4.053-2.313l-3.56,6.618-1.371-4.016-4.388,1.528,2.726,8.126-11.339,21.076c1.267.529,2.37,1.363,3.556,2.041Z"/><path class="cls-1" d="M361.242,68.938c4.294-3.989,8.787-8.133,13.382-11.494l.391-3.321c-3.177-4.322-6.544-8.144-10.052-11.928,4.087-3.489,8.305-6.919,12.612-9.81l-2.786-3.798c-4.994,3.591-9.863,7.798-14.521,11.694l-.213,3.338c3.541,3.831,6.944,7.656,10.211,11.465-4.004,3.449-7.872,6.912-11.602,10.378l2.577,3.475Z"/><path class="cls-1" d="M552.975,169.648c4.858,1.191,9.807,2.486,14.842,3.891l3.006-2.22c.059-4.865.049-9.827-.037-14.883l13.831-11.113c-.952-1.231-1.832-2.521-2.845-3.701l-29.316,24.281c.241,1.201.346,2.506.519,3.745ZM566.398,159.961l-.007,8.549-7.981-2.131,7.988-6.418Z"/><path class="cls-1" d="M94.379,220.532l-14.939-7.31,3.924-8.15-2.292-3.322c-7.201.427-14.518,1.069-21.938,1.933l-1.725,3.582c3.957,6.326,8.022,12.432,12.184,18.314l4.03-.288,3.928-8.149,15.047,7.084,1.78-3.695ZM71.145,219.874l-5.556-8.364,7.812,3.678-2.256,4.686ZM75.32,211.206l-7.756-3.795,10.013-.89-2.257,4.685Z"/><path class="cls-1" d="M340.924,0C152.939,0,0,152.939,0,340.924s152.939,340.921,340.924,340.921,340.924-152.935,340.924-340.921S528.91,0,340.924,0ZM340.924,677.056c-185.345,0-336.135-150.787-336.135-336.132S155.579,4.789,340.924,4.789s336.135,150.79,336.135,336.135-150.79,336.132-336.135,336.132Z"/></svg>
